<svg width="20" height="20" viewBox="0 0 20 20" fill="none" xmlns="http://www.w3.org/2000/svg">
<path d="M13.4181 7.85885C13.5482 7.73 13.7239 7.65771 13.9071 7.65771C14.0902 7.65771 14.2659 7.73 14.3961 7.85885C14.4603 7.92212 14.5113 7.99754 14.5462 8.08072C14.581 8.1639 14.5989 8.25317 14.5989 8.34335C14.5989 8.43352 14.581 8.5228 14.5462 8.60598C14.5113 8.68915 14.4603 8.76458 14.3961 8.82785L10.4881 12.6578C10.3576 12.7865 10.1818 12.8587 9.99856 12.8587C9.81534 12.8587 9.63949 12.7865 9.50906 12.6578L5.60106 8.82785C5.53681 8.76458 5.48578 8.68915 5.45096 8.60598C5.41613 8.5228 5.39819 8.43352 5.39819 8.34335C5.39819 8.25317 5.41613 8.1639 5.45096 8.08072C5.48578 7.99754 5.53681 7.92212 5.60106 7.85885C5.73119 7.73 5.90692 7.65771 6.09006 7.65771C6.27319 7.65771 6.44892 7.73 6.57906 7.85885L10.0001 10.9998L13.4181 7.85885Z" fill="black"/>
</svg>
